# xmcd
#
# Track frame offsets:
#	150
#	17559
#	33871
#	48925
#	63740
#	84746
#	105847
#	122763
#	141250
#	155344
#
# Disc length: 2262 seconds
#
# Revision: 1
# Processed by: cddbd v1.5.2PL0 Copyright (c) Steve Scherf et al.
# Submitted via: audiograbber 1.83.01
#
DISCID=7908d40a
DTITLE=NH3 Band - Let´s have a good time
DYEAR=1980
DGENRE=Rock
TTITLE0=Let´s Have A Good Time
TTITLE1=Girls Get The Boys
TTITLE2=Need You
TTITLE3=The Clown
TTITLE4=The Spider
TTITLE5=Pretty Faces
TTITLE6=Devil-Daaughter´s Paradise
TTITLE7=Still In Love With My Lady
TTITLE8=I Want You
TTITLE9=Rock In CH..
EXTD=
EXTT0=
EXTT1=
EXTT2=
EXTT3=
EXTT4=
EXTT5=
EXTT6=
EXTT7=
EXTT8=
EXTT9=
PLAYORDER=
